{
	"asset":{
		"generator":"Khronos glTF Blender I/O v4.0.44",
		"version":"2.0"
	},
	"scene":0,
	"scenes":[
		{
			"name":"Scene",
			"nodes":[
				0
			]
		}
	],
	"nodes":[
		{
			"mesh":0,
			"name":"Cylinder",
			"scale":[
				0.699999988079071,
				1,
				0.7000000476837158
			],
			"translation":[
				0,
				1,
				0
			]
		}
	],
	"materials":[
		{
			"doubleSided":true,
			"name":"Material.001",
			"pbrMetallicRoughness":{
				"baseColorFactor":[
					0.23301412165164948,
					0.0417773500084877,
					0.004043967928737402,
					1
				],
				"metallicFactor":0.28985506296157837,
				"roughnessFactor":0.7173913717269897
			}
		},
		{
			"doubleSided":true,
			"name":"Material.002",
			"pbrMetallicRoughness":{
				"baseColorFactor":[
					0.800000011920929,
					0.800000011920929,
					0.800000011920929,
					1
				],
				"roughnessFactor":0.5
			}
		}
	],
	"meshes":[
		{
			"name":"Cylinder",
			"primitives":[
				{
					"attributes":{
						"POSITION":0,
						"NORMAL":1,
						"TEXCOORD_0":2
					},
					"indices":3,
					"material":0
				},
				{
					"attributes":{
						"POSITION":4,
						"NORMAL":5,
						"TEXCOORD_0":6
					},
					"indices":7,
					"material":1
				}
			]
		}
	],
	"accessors":[
		{
			"bufferView":0,
			"componentType":5126,
			"count":700,
			"max":[
				1.140650749206543,
				1.0518574714660645,
				1.1410362720489502
			],
			"min":[
				-1.1414088010787964,
				-1,
				-1.140650749206543
			],
			"type":"VEC3"
		},
		{
			"bufferView":1,
			"componentType":5126,
			"count":700,
			"type":"VEC3"
		},
		{
			"bufferView":2,
			"componentType":5126,
			"count":700,
			"type":"VEC2"
		},
		{
			"bufferView":3,
			"componentType":5123,
			"count":1434,
			"type":"SCALAR"
		},
		{
			"bufferView":4,
			"componentType":5126,
			"count":888,
			"max":[
				1.1673121452331543,
				1.0898082256317139,
				1.1676933765411377
			],
			"min":[
				-1.1680701971054077,
				-0.5999999642372131,
				-1.1673078536987305
			],
			"type":"VEC3"
		},
		{
			"bufferView":5,
			"componentType":5126,
			"count":888,
			"type":"VEC3"
		},
		{
			"bufferView":6,
			"componentType":5126,
			"count":888,
			"type":"VEC2"
		},
		{
			"bufferView":7,
			"componentType":5123,
			"count":1818,
			"type":"SCALAR"
		}
	],
	"bufferViews":[
		{
			"buffer":0,
			"byteLength":8400,
			"byteOffset":0,
			"target":34962
		},
		{
			"buffer":0,
			"byteLength":8400,
			"byteOffset":8400,
			"target":34962
		},
		{
			"buffer":0,
			"byteLength":5600,
			"byteOffset":16800,
			"target":34962
		},
		{
			"buffer":0,
			"byteLength":2868,
			"byteOffset":22400,
			"target":34963
		},
		{
			"buffer":0,
			"byteLength":10656,
			"byteOffset":25268,
			"target":34962
		},
		{
			"buffer":0,
			"byteLength":10656,
			"byteOffset":35924,
			"target":34962
		},
		{
			"buffer":0,
			"byteLength":7104,
			"byteOffset":46580,
			"target":34962
		},
		{
			"buffer":0,
			"byteLength":3636,
			"byteOffset":53684,
			"target":34963
		}
	],
	"buffers":[
		{
			"byteLength":57320,
			"uri":"barel.bin"
		}
	]
}
