{
	"asset":{
		"generator":"Khronos glTF Blender I/O v4.0.44",
		"version":"2.0"
	},
	"scene":0,
	"scenes":[
		{
			"name":"Scene",
			"nodes":[
				0,
				1,
				2,
				3,
				4,
				5,
				6,
				7,
				8,
				9,
				10,
				11,
				12
			]
		}
	],
	"nodes":[
		{
			"mesh":0,
			"name":"Cube",
			"scale":[
				0.050000034272670746,
				0.05000000819563866,
				1.2999999523162842
			],
			"translation":[
				0,
				0.4385982155799866,
				0
			]
		},
		{
			"mesh":1,
			"name":"Cube.001",
			"scale":[
				0.06000003218650818,
				0.05000000819563866,
				1.2999999523162842
			],
			"translation":[
				-0.571387529373169,
				0.4385982155799866,
				0
			]
		},
		{
			"mesh":2,
			"name":"Cube.002",
			"rotation":[
				0,
				-0.7071068286895752,
				0,
				0.7071068286895752
			],
			"scale":[
				0.050000034272670746,
				0.05000000819563866,
				0.24500000476837158
			],
			"translation":[
				-0.29408347606658936,
				0.4385982155799866,
				1.3477559089660645
			]
		},
		{
			"mesh":3,
			"name":"Cube.003",
			"rotation":[
				0,
				-0.7071068286895752,
				0,
				0.7071068286895752
			],
			"scale":[
				0.050000034272670746,
				0.05000000074505806,
				0.24500000476837158
			],
			"translation":[
				-0.29408347606658936,
				0.4385982155799866,
				-1.3483638763427734
			]
		},
		{
			"mesh":4,
			"name":"Cube.004",
			"rotation":[
				-0.5,
				-0.5000000596046448,
				-0.5,
				0.5
			],
			"scale":[
				0.050000034272670746,
				0.05000000819563866,
				0.3800000548362732
			],
			"translation":[
				-0.0003370344638824463,
				0.37989988923072815,
				1.3477559089660645
			]
		},
		{
			"mesh":5,
			"name":"Cube.005",
			"rotation":[
				-0.5,
				-0.5000000596046448,
				-0.5,
				0.5
			],
			"scale":[
				0.050000034272670746,
				0.05000000819563866,
				0.3800000548362732
			],
			"translation":[
				-0.0003370344638824463,
				0.37989988923072815,
				-1.3492424488067627
			]
		},
		{
			"mesh":6,
			"name":"Cube.007",
			"rotation":[
				-0.5,
				-0.5000000596046448,
				-0.5,
				0.5
			],
			"scale":[
				0.050000034272670746,
				0.05000000819563866,
				0.3800000548362732
			],
			"translation":[
				-0.5911082029342651,
				0.37989988923072815,
				1.3477559089660645
			]
		},
		{
			"mesh":7,
			"name":"Cube.008",
			"rotation":[
				-0.7071068286895752,
				0,
				-0.7071068286895752,
				5.7601170055932016e-08
			],
			"scale":[
				0.050000034272670746,
				0.05000000819563866,
				0.3800000548362732
			],
			"translation":[
				-0.26952359080314636,
				0.8137729167938232,
				1.3477559089660645
			]
		},
		{
			"mesh":8,
			"name":"Cube.006",
			"rotation":[
				-0.7071068286895752,
				0,
				-0.7071068286895752,
				5.7601170055932016e-08
			],
			"scale":[
				0.050000034272670746,
				0.05000000819563866,
				0.3800000548362732
			],
			"translation":[
				-0.26952359080314636,
				0.8137729167938232,
				-1.352325439453125
			]
		},
		{
			"mesh":9,
			"name":"Cube.009",
			"rotation":[
				-0.5,
				-0.5000000596046448,
				-0.5,
				0.5
			],
			"scale":[
				0.050000034272670746,
				0.05000000819563866,
				0.3800000548362732
			],
			"translation":[
				-0.5911082029342651,
				0.37989988923072815,
				-1.3470416069030762
			]
		},
		{
			"mesh":10,
			"name":"Cube.010",
			"scale":[
				0.050000034272670746,
				0.05000000819563866,
				1.309999942779541
			],
			"translation":[
				-0.7173071503639221,
				1.0133917331695557,
				0
			]
		},
		{
			"mesh":11,
			"name":"Cube.011",
			"scale":[
				0.050000034272670746,
				0.24000000953674316,
				1.309999942779541
			],
			"translation":[
				-0.7173071503639221,
				0.7246547937393188,
				0
			]
		},
		{
			"mesh":12,
			"name":"Cube.012",
			"scale":[
				0.2900000214576721,
				0.014999999664723873,
				1.2999999523162842
			],
			"translation":[
				-0.2548525035381317,
				0.5033982396125793,
				0
			]
		}
	],
	"materials":[
		{
			"doubleSided":true,
			"name":"Material",
			"pbrMetallicRoughness":{
				"baseColorFactor":[
					0.6239686608314514,
					0.2961447834968567,
					0.10224024206399918,
					1
				],
				"metallicFactor":0,
				"roughnessFactor":0.5
			}
		}
	],
	"meshes":[
		{
			"name":"Cube",
			"primitives":[
				{
					"attributes":{
						"POSITION":0,
						"NORMAL":1,
						"TEXCOORD_0":2
					},
					"indices":3,
					"material":0
				}
			]
		},
		{
			"name":"Cube.002",
			"primitives":[
				{
					"attributes":{
						"POSITION":4,
						"NORMAL":5,
						"TEXCOORD_0":6
					},
					"indices":3,
					"material":0
				}
			]
		},
		{
			"name":"Cube.003",
			"primitives":[
				{
					"attributes":{
						"POSITION":7,
						"NORMAL":8,
						"TEXCOORD_0":9
					},
					"indices":3,
					"material":0
				}
			]
		},
		{
			"name":"Cube.004",
			"primitives":[
				{
					"attributes":{
						"POSITION":10,
						"NORMAL":11,
						"TEXCOORD_0":12
					},
					"indices":3,
					"material":0
				}
			]
		},
		{
			"name":"Cube.005",
			"primitives":[
				{
					"attributes":{
						"POSITION":13,
						"NORMAL":14,
						"TEXCOORD_0":15
					},
					"indices":3,
					"material":0
				}
			]
		},
		{
			"name":"Cube.006",
			"primitives":[
				{
					"attributes":{
						"POSITION":16,
						"NORMAL":17,
						"TEXCOORD_0":18
					},
					"indices":3,
					"material":0
				}
			]
		},
		{
			"name":"Cube.008",
			"primitives":[
				{
					"attributes":{
						"POSITION":19,
						"NORMAL":20,
						"TEXCOORD_0":21
					},
					"indices":22,
					"material":0
				}
			]
		},
		{
			"name":"Cube.009",
			"primitives":[
				{
					"attributes":{
						"POSITION":23,
						"NORMAL":24,
						"TEXCOORD_0":25
					},
					"indices":26,
					"material":0
				}
			]
		},
		{
			"name":"Cube.011",
			"primitives":[
				{
					"attributes":{
						"POSITION":27,
						"NORMAL":28,
						"TEXCOORD_0":29
					},
					"indices":26,
					"material":0
				}
			]
		},
		{
			"name":"Cube.012",
			"primitives":[
				{
					"attributes":{
						"POSITION":30,
						"NORMAL":31,
						"TEXCOORD_0":32
					},
					"indices":22,
					"material":0
				}
			]
		},
		{
			"name":"Cube.013",
			"primitives":[
				{
					"attributes":{
						"POSITION":33,
						"NORMAL":34,
						"TEXCOORD_0":35
					},
					"indices":3,
					"material":0
				}
			]
		},
		{
			"name":"Cube.014",
			"primitives":[
				{
					"attributes":{
						"POSITION":36,
						"NORMAL":37,
						"TEXCOORD_0":38
					},
					"indices":39,
					"material":0
				}
			]
		},
		{
			"name":"Cube.015",
			"primitives":[
				{
					"attributes":{
						"POSITION":40,
						"NORMAL":41,
						"TEXCOORD_0":42
					},
					"indices":43,
					"material":0
				}
			]
		}
	],
	"accessors":[
		{
			"bufferView":0,
			"componentType":5126,
			"count":24,
			"max":[
				1,
				1,
				1
			],
			"min":[
				-1,
				-1,
				-1
			],
			"type":"VEC3"
		},
		{
			"bufferView":1,
			"componentType":5126,
			"count":24,
			"type":"VEC3"
		},
		{
			"bufferView":2,
			"componentType":5126,
			"count":24,
			"type":"VEC2"
		},
		{
			"bufferView":3,
			"componentType":5123,
			"count":36,
			"type":"SCALAR"
		},
		{
			"bufferView":4,
			"componentType":5126,
			"count":24,
			"max":[
				1,
				1,
				1
			],
			"min":[
				-1,
				-1,
				-1
			],
			"type":"VEC3"
		},
		{
			"bufferView":5,
			"componentType":5126,
			"count":24,
			"type":"VEC3"
		},
		{
			"bufferView":6,
			"componentType":5126,
			"count":24,
			"type":"VEC2"
		},
		{
			"bufferView":7,
			"componentType":5126,
			"count":24,
			"max":[
				1,
				1,
				1
			],
			"min":[
				-1,
				-1,
				-1
			],
			"type":"VEC3"
		},
		{
			"bufferView":8,
			"componentType":5126,
			"count":24,
			"type":"VEC3"
		},
		{
			"bufferView":9,
			"componentType":5126,
			"count":24,
			"type":"VEC2"
		},
		{
			"bufferView":10,
			"componentType":5126,
			"count":24,
			"max":[
				1,
				1,
				1
			],
			"min":[
				-1,
				-1,
				-1
			],
			"type":"VEC3"
		},
		{
			"bufferView":11,
			"componentType":5126,
			"count":24,
			"type":"VEC3"
		},
		{
			"bufferView":12,
			"componentType":5126,
			"count":24,
			"type":"VEC2"
		},
		{
			"bufferView":13,
			"componentType":5126,
			"count":24,
			"max":[
				1,
				1,
				1
			],
			"min":[
				-1,
				-1,
				-1
			],
			"type":"VEC3"
		},
		{
			"bufferView":14,
			"componentType":5126,
			"count":24,
			"type":"VEC3"
		},
		{
			"bufferView":15,
			"componentType":5126,
			"count":24,
			"type":"VEC2"
		},
		{
			"bufferView":16,
			"componentType":5126,
			"count":24,
			"max":[
				1,
				1,
				1
			],
			"min":[
				-1,
				-1,
				-1
			],
			"type":"VEC3"
		},
		{
			"bufferView":17,
			"componentType":5126,
			"count":24,
			"type":"VEC3"
		},
		{
			"bufferView":18,
			"componentType":5126,
			"count":24,
			"type":"VEC2"
		},
		{
			"bufferView":19,
			"componentType":5126,
			"count":80,
			"max":[
				1.390699863433838,
				1.000000238418579,
				1.844222068786621
			],
			"min":[
				-1.0059397220611572,
				-3.62433123588562,
				-1
			],
			"type":"VEC3"
		},
		{
			"bufferView":20,
			"componentType":5126,
			"count":80,
			"type":"VEC3"
		},
		{
			"bufferView":21,
			"componentType":5126,
			"count":80,
			"type":"VEC2"
		},
		{
			"bufferView":22,
			"componentType":5123,
			"count":132,
			"type":"SCALAR"
		},
		{
			"bufferView":23,
			"componentType":5126,
			"count":56,
			"max":[
				1.0787125825881958,
				1.2666562795639038,
				1.0592669248580933
			],
			"min":[
				-1,
				-0.9999998807907104,
				-0.8817777633666992
			],
			"type":"VEC3"
		},
		{
			"bufferView":24,
			"componentType":5126,
			"count":56,
			"type":"VEC3"
		},
		{
			"bufferView":25,
			"componentType":5126,
			"count":56,
			"type":"VEC2"
		},
		{
			"bufferView":26,
			"componentType":5123,
			"count":84,
			"type":"SCALAR"
		},
		{
			"bufferView":27,
			"componentType":5126,
			"count":56,
			"max":[
				1.0787125825881958,
				1.2666562795639038,
				1.0592669248580933
			],
			"min":[
				-1,
				-0.9999998807907104,
				-0.8817777633666992
			],
			"type":"VEC3"
		},
		{
			"bufferView":28,
			"componentType":5126,
			"count":56,
			"type":"VEC3"
		},
		{
			"bufferView":29,
			"componentType":5126,
			"count":56,
			"type":"VEC2"
		},
		{
			"bufferView":30,
			"componentType":5126,
			"count":80,
			"max":[
				1,
				1.000000238418579,
				1.844222068786621
			],
			"min":[
				-1.4547271728515625,
				-3.62433123588562,
				-1
			],
			"type":"VEC3"
		},
		{
			"bufferView":31,
			"componentType":5126,
			"count":80,
			"type":"VEC3"
		},
		{
			"bufferView":32,
			"componentType":5126,
			"count":80,
			"type":"VEC2"
		},
		{
			"bufferView":33,
			"componentType":5126,
			"count":24,
			"max":[
				1,
				1,
				1.0077641010284424
			],
			"min":[
				-1,
				-1,
				-1.008574366569519
			],
			"type":"VEC3"
		},
		{
			"bufferView":34,
			"componentType":5126,
			"count":24,
			"type":"VEC3"
		},
		{
			"bufferView":35,
			"componentType":5126,
			"count":24,
			"type":"VEC2"
		},
		{
			"bufferView":36,
			"componentType":5126,
			"count":552,
			"max":[
				3.134246826171875,
				1,
				0.990882396697998
			],
			"min":[
				-0.5753028988838196,
				-1,
				-0.966152012348175
			],
			"type":"VEC3"
		},
		{
			"bufferView":37,
			"componentType":5126,
			"count":552,
			"type":"VEC3"
		},
		{
			"bufferView":38,
			"componentType":5126,
			"count":552,
			"type":"VEC2"
		},
		{
			"bufferView":39,
			"componentType":5123,
			"count":840,
			"type":"SCALAR"
		},
		{
			"bufferView":40,
			"componentType":5126,
			"count":104,
			"max":[
				0.9919771552085876,
				0.9210167527198792,
				1
			],
			"min":[
				-1,
				-4.283855438232422,
				-1
			],
			"type":"VEC3"
		},
		{
			"bufferView":41,
			"componentType":5126,
			"count":104,
			"type":"VEC3"
		},
		{
			"bufferView":42,
			"componentType":5126,
			"count":104,
			"type":"VEC2"
		},
		{
			"bufferView":43,
			"componentType":5123,
			"count":156,
			"type":"SCALAR"
		}
	],
	"bufferViews":[
		{
			"buffer":0,
			"byteLength":288,
			"byteOffset":0,
			"target":34962
		},
		{
			"buffer":0,
			"byteLength":288,
			"byteOffset":288,
			"target":34962
		},
		{
			"buffer":0,
			"byteLength":192,
			"byteOffset":576,
			"target":34962
		},
		{
			"buffer":0,
			"byteLength":72,
			"byteOffset":768,
			"target":34963
		},
		{
			"buffer":0,
			"byteLength":288,
			"byteOffset":840,
			"target":34962
		},
		{
			"buffer":0,
			"byteLength":288,
			"byteOffset":1128,
			"target":34962
		},
		{
			"buffer":0,
			"byteLength":192,
			"byteOffset":1416,
			"target":34962
		},
		{
			"buffer":0,
			"byteLength":288,
			"byteOffset":1608,
			"target":34962
		},
		{
			"buffer":0,
			"byteLength":288,
			"byteOffset":1896,
			"target":34962
		},
		{
			"buffer":0,
			"byteLength":192,
			"byteOffset":2184,
			"target":34962
		},
		{
			"buffer":0,
			"byteLength":288,
			"byteOffset":2376,
			"target":34962
		},
		{
			"buffer":0,
			"byteLength":288,
			"byteOffset":2664,
			"target":34962
		},
		{
			"buffer":0,
			"byteLength":192,
			"byteOffset":2952,
			"target":34962
		},
		{
			"buffer":0,
			"byteLength":288,
			"byteOffset":3144,
			"target":34962
		},
		{
			"buffer":0,
			"byteLength":288,
			"byteOffset":3432,
			"target":34962
		},
		{
			"buffer":0,
			"byteLength":192,
			"byteOffset":3720,
			"target":34962
		},
		{
			"buffer":0,
			"byteLength":288,
			"byteOffset":3912,
			"target":34962
		},
		{
			"buffer":0,
			"byteLength":288,
			"byteOffset":4200,
			"target":34962
		},
		{
			"buffer":0,
			"byteLength":192,
			"byteOffset":4488,
			"target":34962
		},
		{
			"buffer":0,
			"byteLength":960,
			"byteOffset":4680,
			"target":34962
		},
		{
			"buffer":0,
			"byteLength":960,
			"byteOffset":5640,
			"target":34962
		},
		{
			"buffer":0,
			"byteLength":640,
			"byteOffset":6600,
			"target":34962
		},
		{
			"buffer":0,
			"byteLength":264,
			"byteOffset":7240,
			"target":34963
		},
		{
			"buffer":0,
			"byteLength":672,
			"byteOffset":7504,
			"target":34962
		},
		{
			"buffer":0,
			"byteLength":672,
			"byteOffset":8176,
			"target":34962
		},
		{
			"buffer":0,
			"byteLength":448,
			"byteOffset":8848,
			"target":34962
		},
		{
			"buffer":0,
			"byteLength":168,
			"byteOffset":9296,
			"target":34963
		},
		{
			"buffer":0,
			"byteLength":672,
			"byteOffset":9464,
			"target":34962
		},
		{
			"buffer":0,
			"byteLength":672,
			"byteOffset":10136,
			"target":34962
		},
		{
			"buffer":0,
			"byteLength":448,
			"byteOffset":10808,
			"target":34962
		},
		{
			"buffer":0,
			"byteLength":960,
			"byteOffset":11256,
			"target":34962
		},
		{
			"buffer":0,
			"byteLength":960,
			"byteOffset":12216,
			"target":34962
		},
		{
			"buffer":0,
			"byteLength":640,
			"byteOffset":13176,
			"target":34962
		},
		{
			"buffer":0,
			"byteLength":288,
			"byteOffset":13816,
			"target":34962
		},
		{
			"buffer":0,
			"byteLength":288,
			"byteOffset":14104,
			"target":34962
		},
		{
			"buffer":0,
			"byteLength":192,
			"byteOffset":14392,
			"target":34962
		},
		{
			"buffer":0,
			"byteLength":6624,
			"byteOffset":14584,
			"target":34962
		},
		{
			"buffer":0,
			"byteLength":6624,
			"byteOffset":21208,
			"target":34962
		},
		{
			"buffer":0,
			"byteLength":4416,
			"byteOffset":27832,
			"target":34962
		},
		{
			"buffer":0,
			"byteLength":1680,
			"byteOffset":32248,
			"target":34963
		},
		{
			"buffer":0,
			"byteLength":1248,
			"byteOffset":33928,
			"target":34962
		},
		{
			"buffer":0,
			"byteLength":1248,
			"byteOffset":35176,
			"target":34962
		},
		{
			"buffer":0,
			"byteLength":832,
			"byteOffset":36424,
			"target":34962
		},
		{
			"buffer":0,
			"byteLength":312,
			"byteOffset":37256,
			"target":34963
		}
	],
	"buffers":[
		{
			"byteLength":37568,
			"uri":"bench.bin"
		}
	]
}
