{
	"asset":{
		"generator":"Khronos glTF Blender I/O v4.0.44",
		"version":"2.0"
	},
	"scene":0,
	"scenes":[
		{
			"name":"Scene",
			"nodes":[
				0
			]
		}
	],
	"nodes":[
		{
			"mesh":0,
			"name":"Cube.011",
			"scale":[
				0.050000034272670746,
				0.24000000953674316,
				1.309999942779541
			],
			"translation":[
				-0.4015994369983673,
				0.579802393913269,
				-0.0516161173582077
			]
		}
	],
	"materials":[
		{
			"doubleSided":true,
			"name":"Material",
			"pbrMetallicRoughness":{
				"baseColorFactor":[
					0.6239686608314514,
					0.2961447834968567,
					0.10224024206399918,
					1
				],
				"metallicFactor":0,
				"roughnessFactor":0.5
			}
		}
	],
	"meshes":[
		{
			"name":"Cube.014",
			"primitives":[
				{
					"attributes":{
						"POSITION":0,
						"NORMAL":1,
						"TEXCOORD_0":2
					},
					"indices":3,
					"material":0
				}
			]
		}
	],
	"accessors":[
		{
			"bufferView":0,
			"componentType":5126,
			"count":1096,
			"max":[
				10.691938400268555,
				2.0870916843414307,
				1.1213032007217407
			],
			"min":[
				-7.414502143859863,
				-2.416260242462158,
				-1.0443984270095825
			],
			"type":"VEC3"
		},
		{
			"bufferView":1,
			"componentType":5126,
			"count":1096,
			"type":"VEC3"
		},
		{
			"bufferView":2,
			"componentType":5126,
			"count":1096,
			"type":"VEC2"
		},
		{
			"bufferView":3,
			"componentType":5123,
			"count":1680,
			"type":"SCALAR"
		}
	],
	"bufferViews":[
		{
			"buffer":0,
			"byteLength":13152,
			"byteOffset":0,
			"target":34962
		},
		{
			"buffer":0,
			"byteLength":13152,
			"byteOffset":13152,
			"target":34962
		},
		{
			"buffer":0,
			"byteLength":8768,
			"byteOffset":26304,
			"target":34962
		},
		{
			"buffer":0,
			"byteLength":3360,
			"byteOffset":35072,
			"target":34963
		}
	],
	"buffers":[
		{
			"byteLength":38432,
			"uri":"bench.bin"
		}
	]
}
