{
	"asset":{
		"generator":"Khronos glTF Blender I/O v4.0.44",
		"version":"2.0"
	},
	"scene":0,
	"scenes":[
		{
			"name":"Scene",
			"nodes":[
				0,
				1
			]
		}
	],
	"nodes":[
		{
			"mesh":0,
			"name":"Cube"
		},
		{
			"mesh":1,
			"name":"Sphere",
			"scale":[
				1.5673918724060059,
				1.5673918724060059,
				1.5673918724060059
			],
			"translation":[
				0,
				-2.771237373352051,
				0
			]
		}
	],
	"materials":[
		{
			"doubleSided":true,
			"name":"Material",
			"pbrMetallicRoughness":{
				"baseColorFactor":[
					0.7606984972953796,
					0.7606984972953796,
					0.7606984972953796,
					1
				],
				"metallicFactor":0.8976377844810486,
				"roughnessFactor":0.28740155696868896
			}
		},
		{
			"doubleSided":true,
			"emissiveFactor":[
				1,
				0.024061264470219612,
				0.016480768099427223
			],
			"name":"Material.002",
			"pbrMetallicRoughness":{
				"baseColorFactor":[
					0.8001416921615601,
					0,
					0.0041547431610524654,
					1
				],
				"metallicFactor":0,
				"roughnessFactor":0.5
			}
		},
		{
			"doubleSided":true,
			"name":"Material.001",
			"pbrMetallicRoughness":{
				"baseColorFactor":[
					0,
					0,
					0,
					1
				],
				"metallicFactor":0,
				"roughnessFactor":0.8385826349258423
			}
		}
	],
	"meshes":[
		{
			"name":"Cube",
			"primitives":[
				{
					"attributes":{
						"POSITION":0,
						"NORMAL":1,
						"TEXCOORD_0":2
					},
					"indices":3,
					"material":0
				},
				{
					"attributes":{
						"POSITION":4,
						"NORMAL":5,
						"TEXCOORD_0":6
					},
					"indices":7,
					"material":1
				}
			]
		},
		{
			"name":"Sphere",
			"primitives":[
				{
					"attributes":{
						"POSITION":8,
						"NORMAL":9,
						"TEXCOORD_0":10
					},
					"indices":11,
					"material":2
				}
			]
		}
	],
	"accessors":[
		{
			"bufferView":0,
			"componentType":5126,
			"count":563,
			"max":[
				1,
				1.4109135866165161,
				2.3264567852020264
			],
			"min":[
				-1,
				-1.8383517265319824,
				-1
			],
			"type":"VEC3"
		},
		{
			"bufferView":1,
			"componentType":5126,
			"count":563,
			"type":"VEC3"
		},
		{
			"bufferView":2,
			"componentType":5126,
			"count":563,
			"type":"VEC2"
		},
		{
			"bufferView":3,
			"componentType":5123,
			"count":972,
			"type":"SCALAR"
		},
		{
			"bufferView":4,
			"componentType":5126,
			"count":24,
			"max":[
				0.43706202507019043,
				1.4109135866165161,
				0.43706202507019043
			],
			"min":[
				-0.43706202507019043,
				1.1065340042114258,
				-0.43706202507019043
			],
			"type":"VEC3"
		},
		{
			"bufferView":5,
			"componentType":5126,
			"count":24,
			"type":"VEC3"
		},
		{
			"bufferView":6,
			"componentType":5126,
			"count":24,
			"type":"VEC2"
		},
		{
			"bufferView":7,
			"componentType":5123,
			"count":48,
			"type":"SCALAR"
		},
		{
			"bufferView":8,
			"componentType":5126,
			"count":1984,
			"max":[
				0.9999997019767761,
				1,
				0.9999993443489075
			],
			"min":[
				-0.9999990463256836,
				-1,
				-1
			],
			"type":"VEC3"
		},
		{
			"bufferView":9,
			"componentType":5126,
			"count":1984,
			"type":"VEC3"
		},
		{
			"bufferView":10,
			"componentType":5126,
			"count":1984,
			"type":"VEC2"
		},
		{
			"bufferView":11,
			"componentType":5123,
			"count":2880,
			"type":"SCALAR"
		}
	],
	"bufferViews":[
		{
			"buffer":0,
			"byteLength":6756,
			"byteOffset":0,
			"target":34962
		},
		{
			"buffer":0,
			"byteLength":6756,
			"byteOffset":6756,
			"target":34962
		},
		{
			"buffer":0,
			"byteLength":4504,
			"byteOffset":13512,
			"target":34962
		},
		{
			"buffer":0,
			"byteLength":1944,
			"byteOffset":18016,
			"target":34963
		},
		{
			"buffer":0,
			"byteLength":288,
			"byteOffset":19960,
			"target":34962
		},
		{
			"buffer":0,
			"byteLength":288,
			"byteOffset":20248,
			"target":34962
		},
		{
			"buffer":0,
			"byteLength":192,
			"byteOffset":20536,
			"target":34962
		},
		{
			"buffer":0,
			"byteLength":96,
			"byteOffset":20728,
			"target":34963
		},
		{
			"buffer":0,
			"byteLength":23808,
			"byteOffset":20824,
			"target":34962
		},
		{
			"buffer":0,
			"byteLength":23808,
			"byteOffset":44632,
			"target":34962
		},
		{
			"buffer":0,
			"byteLength":15872,
			"byteOffset":68440,
			"target":34962
		},
		{
			"buffer":0,
			"byteLength":5760,
			"byteOffset":84312,
			"target":34963
		}
	],
	"buffers":[
		{
			"byteLength":90072,
			"uri":"drone_patrol.bin"
		}
	]
}
