{
	"asset":{
		"generator":"Khronos glTF Blender I/O v4.0.44",
		"version":"2.0"
	},
	"scene":0,
	"scenes":[
		{
			"name":"Scene",
			"nodes":[
				0,
				1,
				2,
				3,
				4
			]
		}
	],
	"nodes":[
		{
			"mesh":0,
			"name":"Torus",
			"scale":[
				1,
				0.31986212730407715,
				1
			]
		},
		{
			"mesh":1,
			"name":"Sphere",
			"scale":[
				0.43105626106262207,
				0.43105626106262207,
				0.43105626106262207
			]
		},
		{
			"mesh":2,
			"name":"Cylinder",
			"rotation":[
				0,
				0,
				-0.7071068286895752,
				0.7071068286895752
			],
			"scale":[
				0.03144735097885132,
				1,
				0.03144735097885132
			]
		},
		{
			"mesh":2,
			"name":"Cylinder.001",
			"rotation":[
				0,
				0,
				-0.7071068286895752,
				0.7071068286895752
			],
			"scale":[
				0.03144735097885132,
				1,
				0.03144735097885132
			]
		},
		{
			"mesh":3,
			"name":"Cylinder.002",
			"rotation":[
				0,
				0,
				-0.7071068286895752,
				0.7071068286895752
			],
			"scale":[
				0.008276790380477905,
				0.05856025964021683,
				0.008276790380477905
			],
			"translation":[
				-1.056489109992981,
				0,
				0
			]
		}
	],
	"materials":[
		{
			"doubleSided":true,
			"name":"Material.002",
			"pbrMetallicRoughness":{
				"baseColorFactor":[
					0.800000011920929,
					0.800000011920929,
					0.800000011920929,
					1
				],
				"metallicFactor":0.6771653890609741,
				"roughnessFactor":0.29527556896209717
			}
		},
		{
			"doubleSided":true,
			"name":"Material.003",
			"pbrMetallicRoughness":{
				"baseColorFactor":[
					0.8000315427780151,
					0.045336782932281494,
					0.10311948508024216,
					1
				],
				"metallicFactor":0.6141732335090637,
				"roughnessFactor":0.5
			}
		},
		{
			"doubleSided":true,
			"name":"Material.001",
			"pbrMetallicRoughness":{
				"baseColorFactor":[
					0.3698404133319855,
					0.3698404133319855,
					0.3698404133319855,
					1
				],
				"metallicFactor":0.7086614370346069,
				"roughnessFactor":0.31889763474464417
			}
		},
		{
			"doubleSided":true,
			"emissiveFactor":[
				1,
				0.2041652649641037,
				0.07436750829219818
			],
			"name":"Material.005",
			"pbrMetallicRoughness":{
				"baseColorFactor":[
					0.8002121448516846,
					0.35738909244537354,
					0.01824120804667473,
					1
				],
				"metallicFactor":0,
				"roughnessFactor":0.5
			}
		},
		{
			"doubleSided":true,
			"name":"Material.006",
			"pbrMetallicRoughness":{
				"baseColorFactor":[
					0.05796778202056885,
					0.05796778202056885,
					0.05796778202056885,
					1
				],
				"metallicFactor":0.6535432934761047,
				"roughnessFactor":0.0354330837726593
			}
		},
		{
			"doubleSided":true,
			"name":"Material.004",
			"pbrMetallicRoughness":{
				"baseColorFactor":[
					0.00351268844678998,
					0.014803523197770119,
					0.055543482303619385,
					1
				],
				"metallicFactor":0.8188976645469666,
				"roughnessFactor":0.5
			}
		}
	],
	"meshes":[
		{
			"name":"Torus",
			"primitives":[
				{
					"attributes":{
						"POSITION":0,
						"NORMAL":1,
						"TEXCOORD_0":2
					},
					"indices":3,
					"material":0
				},
				{
					"attributes":{
						"POSITION":4,
						"NORMAL":5,
						"TEXCOORD_0":6
					},
					"indices":7,
					"material":1
				}
			]
		},
		{
			"name":"Sphere",
			"primitives":[
				{
					"attributes":{
						"POSITION":8,
						"NORMAL":9,
						"TEXCOORD_0":10
					},
					"indices":11,
					"material":2
				},
				{
					"attributes":{
						"POSITION":12,
						"NORMAL":13,
						"TEXCOORD_0":14
					},
					"indices":15,
					"material":3
				},
				{
					"attributes":{
						"POSITION":16,
						"NORMAL":17,
						"TEXCOORD_0":18
					},
					"indices":19,
					"material":4
				}
			]
		},
		{
			"name":"Cylinder",
			"primitives":[
				{
					"attributes":{
						"POSITION":20,
						"NORMAL":21,
						"TEXCOORD_0":22
					},
					"indices":23,
					"material":5
				}
			]
		},
		{
			"name":"Cylinder.001",
			"primitives":[
				{
					"attributes":{
						"POSITION":24,
						"NORMAL":25,
						"TEXCOORD_0":26
					},
					"indices":27,
					"material":5
				}
			]
		}
	],
	"accessors":[
		{
			"bufferView":0,
			"componentType":5126,
			"count":768,
			"max":[
				1.194415807723999,
				0.02979293465614319,
				1.194415807723999
			],
			"min":[
				-1.1944150924682617,
				-0.029792889952659607,
				-1.19441556930542
			],
			"type":"VEC3"
		},
		{
			"bufferView":1,
			"componentType":5126,
			"count":768,
			"type":"VEC3"
		},
		{
			"bufferView":2,
			"componentType":5126,
			"count":768,
			"type":"VEC2"
		},
		{
			"bufferView":3,
			"componentType":5123,
			"count":1152,
			"type":"SCALAR"
		},
		{
			"bufferView":4,
			"componentType":5126,
			"count":2112,
			"max":[
				1.012338399887085,
				0.18297655880451202,
				1.0123388767242432
			],
			"min":[
				-1.0123389959335327,
				-0.1763395220041275,
				-1.0123389959335327
			],
			"type":"VEC3"
		},
		{
			"bufferView":5,
			"componentType":5126,
			"count":2112,
			"type":"VEC3"
		},
		{
			"bufferView":6,
			"componentType":5126,
			"count":2112,
			"type":"VEC2"
		},
		{
			"bufferView":7,
			"componentType":5123,
			"count":3168,
			"type":"SCALAR"
		},
		{
			"bufferView":8,
			"componentType":5126,
			"count":1722,
			"max":[
				0.9999997019767761,
				0.9807852506637573,
				1.3617335557937622
			],
			"min":[
				-0.9999990463256836,
				-1,
				-1
			],
			"type":"VEC3"
		},
		{
			"bufferView":9,
			"componentType":5126,
			"count":1722,
			"type":"VEC3"
		},
		{
			"bufferView":10,
			"componentType":5126,
			"count":1722,
			"type":"VEC2"
		},
		{
			"bufferView":11,
			"componentType":5123,
			"count":2556,
			"type":"SCALAR"
		},
		{
			"bufferView":12,
			"componentType":5126,
			"count":416,
			"max":[
				0.19509026408195496,
				1.2398607730865479,
				0.195090189576149
			],
			"min":[
				-0.1950901448726654,
				0.9807852506637573,
				-0.19509010016918182
			],
			"type":"VEC3"
		},
		{
			"bufferView":13,
			"componentType":5126,
			"count":416,
			"type":"VEC3"
		},
		{
			"bufferView":14,
			"componentType":5126,
			"count":416,
			"type":"VEC2"
		},
		{
			"bufferView":15,
			"componentType":5123,
			"count":666,
			"type":"SCALAR"
		},
		{
			"bufferView":16,
			"componentType":5126,
			"count":488,
			"max":[
				0.9061272144317627,
				0.7071067690849304,
				1.3617335557937622
			],
			"min":[
				-0.9061272144317627,
				-0.7071067690849304,
				0.2705979645252228
			],
			"type":"VEC3"
		},
		{
			"bufferView":17,
			"componentType":5126,
			"count":488,
			"type":"VEC3"
		},
		{
			"bufferView":18,
			"componentType":5126,
			"count":488,
			"type":"VEC2"
		},
		{
			"bufferView":19,
			"componentType":5123,
			"count":804,
			"type":"SCALAR"
		},
		{
			"bufferView":20,
			"componentType":5126,
			"count":192,
			"max":[
				1,
				1,
				1
			],
			"min":[
				-1,
				-1,
				-1
			],
			"type":"VEC3"
		},
		{
			"bufferView":21,
			"componentType":5126,
			"count":192,
			"type":"VEC3"
		},
		{
			"bufferView":22,
			"componentType":5126,
			"count":192,
			"type":"VEC2"
		},
		{
			"bufferView":23,
			"componentType":5123,
			"count":372,
			"type":"SCALAR"
		},
		{
			"bufferView":24,
			"componentType":5126,
			"count":2304,
			"max":[
				1,
				37.082130432128906,
				134.72003173828125
			],
			"min":[
				-1.0000113248825073,
				-1,
				-134.72015380859375
			],
			"type":"VEC3"
		},
		{
			"bufferView":25,
			"componentType":5126,
			"count":2304,
			"type":"VEC3"
		},
		{
			"bufferView":26,
			"componentType":5126,
			"count":2304,
			"type":"VEC2"
		},
		{
			"bufferView":27,
			"componentType":5123,
			"count":4464,
			"type":"SCALAR"
		}
	],
	"bufferViews":[
		{
			"buffer":0,
			"byteLength":9216,
			"byteOffset":0,
			"target":34962
		},
		{
			"buffer":0,
			"byteLength":9216,
			"byteOffset":9216,
			"target":34962
		},
		{
			"buffer":0,
			"byteLength":6144,
			"byteOffset":18432,
			"target":34962
		},
		{
			"buffer":0,
			"byteLength":2304,
			"byteOffset":24576,
			"target":34963
		},
		{
			"buffer":0,
			"byteLength":25344,
			"byteOffset":26880,
			"target":34962
		},
		{
			"buffer":0,
			"byteLength":25344,
			"byteOffset":52224,
			"target":34962
		},
		{
			"buffer":0,
			"byteLength":16896,
			"byteOffset":77568,
			"target":34962
		},
		{
			"buffer":0,
			"byteLength":6336,
			"byteOffset":94464,
			"target":34963
		},
		{
			"buffer":0,
			"byteLength":20664,
			"byteOffset":100800,
			"target":34962
		},
		{
			"buffer":0,
			"byteLength":20664,
			"byteOffset":121464,
			"target":34962
		},
		{
			"buffer":0,
			"byteLength":13776,
			"byteOffset":142128,
			"target":34962
		},
		{
			"buffer":0,
			"byteLength":5112,
			"byteOffset":155904,
			"target":34963
		},
		{
			"buffer":0,
			"byteLength":4992,
			"byteOffset":161016,
			"target":34962
		},
		{
			"buffer":0,
			"byteLength":4992,
			"byteOffset":166008,
			"target":34962
		},
		{
			"buffer":0,
			"byteLength":3328,
			"byteOffset":171000,
			"target":34962
		},
		{
			"buffer":0,
			"byteLength":1332,
			"byteOffset":174328,
			"target":34963
		},
		{
			"buffer":0,
			"byteLength":5856,
			"byteOffset":175660,
			"target":34962
		},
		{
			"buffer":0,
			"byteLength":5856,
			"byteOffset":181516,
			"target":34962
		},
		{
			"buffer":0,
			"byteLength":3904,
			"byteOffset":187372,
			"target":34962
		},
		{
			"buffer":0,
			"byteLength":1608,
			"byteOffset":191276,
			"target":34963
		},
		{
			"buffer":0,
			"byteLength":2304,
			"byteOffset":192884,
			"target":34962
		},
		{
			"buffer":0,
			"byteLength":2304,
			"byteOffset":195188,
			"target":34962
		},
		{
			"buffer":0,
			"byteLength":1536,
			"byteOffset":197492,
			"target":34962
		},
		{
			"buffer":0,
			"byteLength":744,
			"byteOffset":199028,
			"target":34963
		},
		{
			"buffer":0,
			"byteLength":27648,
			"byteOffset":199772,
			"target":34962
		},
		{
			"buffer":0,
			"byteLength":27648,
			"byteOffset":227420,
			"target":34962
		},
		{
			"buffer":0,
			"byteLength":18432,
			"byteOffset":255068,
			"target":34962
		},
		{
			"buffer":0,
			"byteLength":8928,
			"byteOffset":273500,
			"target":34963
		}
	],
	"buffers":[
		{
			"byteLength":282428,
			"uri":"drone_sky.bin"
		}
	]
}
