{
	"asset":{
		"generator":"Khronos glTF Blender I/O v4.0.44",
		"version":"2.0"
	},
	"extensionsUsed":[
		"KHR_materials_emissive_strength"
	],
	"scene":0,
	"scenes":[
		{
			"name":"Scene",
			"nodes":[
				0
			]
		}
	],
	"nodes":[
		{
			"mesh":0,
			"name":"Sphere",
			"scale":[
				0.3766290545463562,
				0.3766290545463562,
				0.3766290545463562
			],
			"translation":[
				0.053938087075948715,
				-1.0036802291870117,
				0
			]
		}
	],
	"materials":[
		{
			"doubleSided":true,
			"emissiveFactor":[
				1,
				0.2979356050491333,
				0
			],
			"extensions":{
				"KHR_materials_emissive_strength":{
					"emissiveStrength":2
				}
			},
			"name":"Material.003",
			"pbrMetallicRoughness":{
				"baseColorFactor":[
					0.8001648187637329,
					0.5418097376823425,
					0,
					1
				],
				"metallicFactor":0,
				"roughnessFactor":0.5
			}
		},
		{
			"doubleSided":true,
			"name":"Material.002",
			"pbrMetallicRoughness":{
				"baseColorFactor":[
					0.12735946476459503,
					0.12735946476459503,
					0.12735946476459503,
					1
				],
				"metallicFactor":0.834645688533783,
				"roughnessFactor":0.31889763474464417
			}
		}
	],
	"meshes":[
		{
			"name":"Sphere",
			"primitives":[
				{
					"attributes":{
						"POSITION":0,
						"NORMAL":1,
						"TEXCOORD_0":2
					},
					"indices":3,
					"material":0
				},
				{
					"attributes":{
						"POSITION":4,
						"NORMAL":5,
						"TEXCOORD_0":6
					},
					"indices":7,
					"material":1
				}
			]
		}
	],
	"accessors":[
		{
			"bufferView":0,
			"componentType":5126,
			"count":1984,
			"max":[
				0.8567869663238525,
				1.0301538705825806,
				0.9999994039535522
			],
			"min":[
				-1.143211841583252,
				-0.9698461294174194,
				-0.9999999403953552
			],
			"type":"VEC3"
		},
		{
			"bufferView":1,
			"componentType":5126,
			"count":1984,
			"type":"VEC3"
		},
		{
			"bufferView":2,
			"componentType":5126,
			"count":1984,
			"type":"VEC2"
		},
		{
			"bufferView":3,
			"componentType":5123,
			"count":2880,
			"type":"SCALAR"
		},
		{
			"bufferView":4,
			"componentType":5126,
			"count":514,
			"max":[
				3.3742077350616455,
				-0.21320465207099915,
				0.33650293946266174
			],
			"min":[
				-0.23814687132835388,
				-0.5325755476951599,
				-0.3365028202533722
			],
			"type":"VEC3"
		},
		{
			"bufferView":5,
			"componentType":5126,
			"count":514,
			"type":"VEC3"
		},
		{
			"bufferView":6,
			"componentType":5126,
			"count":514,
			"type":"VEC2"
		},
		{
			"bufferView":7,
			"componentType":5123,
			"count":948,
			"type":"SCALAR"
		}
	],
	"bufferViews":[
		{
			"buffer":0,
			"byteLength":23808,
			"byteOffset":0,
			"target":34962
		},
		{
			"buffer":0,
			"byteLength":23808,
			"byteOffset":23808,
			"target":34962
		},
		{
			"buffer":0,
			"byteLength":15872,
			"byteOffset":47616,
			"target":34962
		},
		{
			"buffer":0,
			"byteLength":5760,
			"byteOffset":63488,
			"target":34963
		},
		{
			"buffer":0,
			"byteLength":6168,
			"byteOffset":69248,
			"target":34962
		},
		{
			"buffer":0,
			"byteLength":6168,
			"byteOffset":75416,
			"target":34962
		},
		{
			"buffer":0,
			"byteLength":4112,
			"byteOffset":81584,
			"target":34962
		},
		{
			"buffer":0,
			"byteLength":1896,
			"byteOffset":85696,
			"target":34963
		}
	],
	"buffers":[
		{
			"byteLength":87592,
			"uri":"drone_wheels.bin"
		}
	]
}
