{
	"asset":{
		"generator":"Khronos glTF Blender I/O v4.0.44",
		"version":"2.0"
	},
	"scene":0,
	"scenes":[
		{
			"name":"Scene",
			"nodes":[
				0
			]
		}
	],
	"nodes":[
		{
			"mesh":0,
			"name":"Cylinder",
			"rotation":[
				0,
				0,
				-0.7071068286895752,
				0.7071068286895752
			],
			"scale":[
				0.06741806119680405,
				1.077465534210205,
				0.06741806119680405
			],
			"translation":[
				0.01309119164943695,
				0,
				0
			]
		}
	],
	"materials":[
		{
			"doubleSided":true,
			"name":"Material.002",
			"pbrMetallicRoughness":{
				"baseColorFactor":[
					0.11996109783649445,
					0.16072504222393036,
					0,
					1
				],
				"metallicFactor":0.787401556968689,
				"roughnessFactor":0.5
			}
		},
		{
			"doubleSided":true,
			"name":"Material.001",
			"pbrMetallicRoughness":{
				"baseColorFactor":[
					0,
					0,
					0,
					1
				],
				"metallicFactor":0.748031497001648,
				"roughnessFactor":0.5
			}
		}
	],
	"meshes":[
		{
			"name":"Cylinder",
			"primitives":[
				{
					"attributes":{
						"POSITION":0,
						"NORMAL":1,
						"TEXCOORD_0":2
					},
					"indices":3,
					"material":0
				},
				{
					"attributes":{
						"POSITION":4,
						"NORMAL":5,
						"TEXCOORD_0":6
					},
					"indices":7,
					"material":1
				}
			]
		}
	],
	"accessors":[
		{
			"bufferView":0,
			"componentType":5126,
			"count":816,
			"max":[
				1,
				1,
				1
			],
			"min":[
				-18.207408905029297,
				-1,
				-1
			],
			"type":"VEC3"
		},
		{
			"bufferView":1,
			"componentType":5126,
			"count":816,
			"type":"VEC3"
		},
		{
			"bufferView":2,
			"componentType":5126,
			"count":816,
			"type":"VEC2"
		},
		{
			"bufferView":3,
			"componentType":5123,
			"count":3816,
			"type":"SCALAR"
		},
		{
			"bufferView":4,
			"componentType":5126,
			"count":1984,
			"max":[
				-15.562004089355469,
				0.14660412073135376,
				2.537184476852417
			],
			"min":[
				-20.636375427246094,
				-0.17090408504009247,
				-2.5371861457824707
			],
			"type":"VEC3"
		},
		{
			"bufferView":5,
			"componentType":5126,
			"count":1984,
			"type":"VEC3"
		},
		{
			"bufferView":6,
			"componentType":5126,
			"count":1984,
			"type":"VEC2"
		},
		{
			"bufferView":7,
			"componentType":5123,
			"count":2880,
			"type":"SCALAR"
		}
	],
	"bufferViews":[
		{
			"buffer":0,
			"byteLength":9792,
			"byteOffset":0,
			"target":34962
		},
		{
			"buffer":0,
			"byteLength":9792,
			"byteOffset":9792,
			"target":34962
		},
		{
			"buffer":0,
			"byteLength":6528,
			"byteOffset":19584,
			"target":34962
		},
		{
			"buffer":0,
			"byteLength":7632,
			"byteOffset":26112,
			"target":34963
		},
		{
			"buffer":0,
			"byteLength":23808,
			"byteOffset":33744,
			"target":34962
		},
		{
			"buffer":0,
			"byteLength":23808,
			"byteOffset":57552,
			"target":34962
		},
		{
			"buffer":0,
			"byteLength":15872,
			"byteOffset":81360,
			"target":34962
		},
		{
			"buffer":0,
			"byteLength":5760,
			"byteOffset":97232,
			"target":34963
		}
	],
	"buffers":[
		{
			"byteLength":102992,
			"uri":"drone_ground.bin"
		}
	]
}
