{
	"asset":{
		"generator":"Khronos glTF Blender I/O v4.0.44",
		"version":"2.0"
	},
	"scene":0,
	"scenes":[
		{
			"name":"Scene",
			"nodes":[
				0
			]
		}
	],
	"nodes":[
		{
			"mesh":0,
			"name":"Plank down.005",
			"scale":[
				0.21000003814697266,
				1.440000295639038,
				0.10000000149011612
			],
			"translation":[
				4.881690502166748,
				2.0745038986206055,
				0
			]
		}
	],
	"materials":[
		{
			"doubleSided":true,
			"name":"Material.002",
			"pbrMetallicRoughness":{
				"baseColorFactor":[
					0.15825335681438446,
					0.048431381583213806,
					0.007432138547301292,
					1
				],
				"metallicFactor":0,
				"roughnessFactor":0.5
			}
		}
	],
	"meshes":[
		{
			"name":"Cube.009",
			"primitives":[
				{
					"attributes":{
						"POSITION":0,
						"NORMAL":1,
						"TEXCOORD_0":2
					},
					"indices":3,
					"material":0
				}
			]
		}
	],
	"accessors":[
		{
			"bufferView":0,
			"componentType":5126,
			"count":1012,
			"max":[
				25.067150115966797,
				2.806903600692749,
				3.8711912631988525
			],
			"min":[
				-24.399198532104492,
				-1.4413087368011475,
				-3.8374972343444824
			],
			"type":"VEC3"
		},
		{
			"bufferView":1,
			"componentType":5126,
			"count":1012,
			"type":"VEC3"
		},
		{
			"bufferView":2,
			"componentType":5126,
			"count":1012,
			"type":"VEC2"
		},
		{
			"bufferView":3,
			"componentType":5123,
			"count":1536,
			"type":"SCALAR"
		}
	],
	"bufferViews":[
		{
			"buffer":0,
			"byteLength":12144,
			"byteOffset":0,
			"target":34962
		},
		{
			"buffer":0,
			"byteLength":12144,
			"byteOffset":12144,
			"target":34962
		},
		{
			"buffer":0,
			"byteLength":8096,
			"byteOffset":24288,
			"target":34962
		},
		{
			"buffer":0,
			"byteLength":3072,
			"byteOffset":32384,
			"target":34963
		}
	],
	"buffers":[
		{
			"byteLength":35456,
			"uri":"fench.bin"
		}
	]
}
