{
	"asset":{
		"generator":"Khronos glTF Blender I/O v4.0.44",
		"version":"2.0"
	},
	"scene":0,
	"scenes":[
		{
			"name":"Scene",
			"nodes":[
				0
			]
		}
	],
	"nodes":[
		{
			"mesh":0,
			"name":"Plank down.010",
			"scale":[
				0.21000003814697266,
				1.440000295639038,
				0.10000000149011612
			],
			"translation":[
				4.9414567947387695,
				2.631718635559082,
				0.00010161912359762937
			]
		}
	],
	"materials":[
		{
			"doubleSided":true,
			"name":"Material",
			"pbrMetallicRoughness":{
				"baseColorFactor":[
					0.800000011920929,
					0.800000011920929,
					0.800000011920929,
					1
				],
				"metallicFactor":0,
				"roughnessFactor":0.5
			}
		},
		{
			"doubleSided":true,
			"name":"Material.001",
			"pbrMetallicRoughness":{
				"baseColorFactor":[
					0.800000011920929,
					0.800000011920929,
					0.800000011920929,
					1
				],
				"metallicFactor":0,
				"roughnessFactor":0.5
			}
		}
	],
	"meshes":[
		{
			"name":"Cube.014",
			"primitives":[
				{
					"attributes":{
						"POSITION":0,
						"NORMAL":1,
						"TEXCOORD_0":2
					},
					"indices":3,
					"material":0
				},
				{
					"attributes":{
						"POSITION":4,
						"NORMAL":5,
						"TEXCOORD_0":6
					},
					"indices":7
				},
				{
					"attributes":{
						"POSITION":8,
						"NORMAL":9,
						"TEXCOORD_0":10
					},
					"indices":11,
					"material":1
				}
			]
		}
	],
	"accessors":[
		{
			"bufferView":0,
			"componentType":5126,
			"count":154,
			"max":[
				20.04486656188965,
				2.4199490547180176,
				3.8701751232147217
			],
			"min":[
				-24.683805465698242,
				-1.828263282775879,
				-3.8385133743286133
			],
			"type":"VEC3"
		},
		{
			"bufferView":1,
			"componentType":5126,
			"count":154,
			"type":"VEC3"
		},
		{
			"bufferView":2,
			"componentType":5126,
			"count":154,
			"type":"VEC2"
		},
		{
			"bufferView":3,
			"componentType":5123,
			"count":240,
			"type":"SCALAR"
		},
		{
			"bufferView":4,
			"componentType":5126,
			"count":618,
			"max":[
				24.782546997070312,
				2.4199490547180176,
				3.8701751232147217
			],
			"min":[
				-21.29814338684082,
				-1.828263282775879,
				-3.8385133743286133
			],
			"type":"VEC3"
		},
		{
			"bufferView":5,
			"componentType":5126,
			"count":618,
			"type":"VEC3"
		},
		{
			"bufferView":6,
			"componentType":5126,
			"count":618,
			"type":"VEC2"
		},
		{
			"bufferView":7,
			"componentType":5123,
			"count":936,
			"type":"SCALAR"
		},
		{
			"bufferView":8,
			"componentType":5126,
			"count":240,
			"max":[
				19.950376510620117,
				2.1597812175750732,
				0.9989838004112244
			],
			"min":[
				-1.2507667541503906,
				0.952661395072937,
				-1.0010161399841309
			],
			"type":"VEC3"
		},
		{
			"bufferView":9,
			"componentType":5126,
			"count":240,
			"type":"VEC3"
		},
		{
			"bufferView":10,
			"componentType":5126,
			"count":240,
			"type":"VEC2"
		},
		{
			"bufferView":11,
			"componentType":5123,
			"count":360,
			"type":"SCALAR"
		}
	],
	"bufferViews":[
		{
			"buffer":0,
			"byteLength":1848,
			"byteOffset":0,
			"target":34962
		},
		{
			"buffer":0,
			"byteLength":1848,
			"byteOffset":1848,
			"target":34962
		},
		{
			"buffer":0,
			"byteLength":1232,
			"byteOffset":3696,
			"target":34962
		},
		{
			"buffer":0,
			"byteLength":480,
			"byteOffset":4928,
			"target":34963
		},
		{
			"buffer":0,
			"byteLength":7416,
			"byteOffset":5408,
			"target":34962
		},
		{
			"buffer":0,
			"byteLength":7416,
			"byteOffset":12824,
			"target":34962
		},
		{
			"buffer":0,
			"byteLength":4944,
			"byteOffset":20240,
			"target":34962
		},
		{
			"buffer":0,
			"byteLength":1872,
			"byteOffset":25184,
			"target":34963
		},
		{
			"buffer":0,
			"byteLength":2880,
			"byteOffset":27056,
			"target":34962
		},
		{
			"buffer":0,
			"byteLength":2880,
			"byteOffset":29936,
			"target":34962
		},
		{
			"buffer":0,
			"byteLength":1920,
			"byteOffset":32816,
			"target":34962
		},
		{
			"buffer":0,
			"byteLength":720,
			"byteOffset":34736,
			"target":34963
		}
	],
	"buffers":[
		{
			"byteLength":35456,
			"uri":"fench.bin"
		}
	]
}
