{
	"asset":{
		"generator":"Khronos glTF Blender I/O v4.0.44",
		"version":"2.0"
	},
	"scene":0,
	"scenes":[
		{
			"name":"Scene",
			"nodes":[
				0
			]
		}
	],
	"nodes":[
		{
			"mesh":0,
			"name":"Cylinder",
			"scale":[
				1,
				1.350000023841858,
				1
			],
			"translation":[
				-4.461221396923065e-05,
				1.4358898401260376,
				-0.005784895736724138
			]
		}
	],
	"materials":[
		{
			"doubleSided":true,
			"name":"Material.001",
			"pbrMetallicRoughness":{
				"baseColorFactor":[
					0.8000000715255737,
					0.008021428249776363,
					0,
					1
				],
				"roughnessFactor":0.5
			}
		},
		{
			"doubleSided":true,
			"name":"Material.002",
			"pbrMetallicRoughness":{
				"baseColorFactor":[
					1,
					0.6744374632835388,
					0.005930088460445404,
					1
				],
				"roughnessFactor":0.5
			}
		}
	],
	"meshes":[
		{
			"name":"Cylinder",
			"primitives":[
				{
					"attributes":{
						"POSITION":0,
						"NORMAL":1,
						"TEXCOORD_0":2
					},
					"indices":3,
					"material":0
				},
				{
					"attributes":{
						"POSITION":4,
						"NORMAL":5,
						"TEXCOORD_0":6
					},
					"indices":7,
					"material":1
				}
			]
		}
	],
	"accessors":[
		{
			"bufferView":0,
			"componentType":5126,
			"count":3648,
			"max":[
				1.0370254516601562,
				1.0560647249221802,
				1.0365850925445557
			],
			"min":[
				-1.0369362831115723,
				-1.0271754264831543,
				-1.0373766422271729
			],
			"type":"VEC3"
		},
		{
			"bufferView":1,
			"componentType":5126,
			"count":3648,
			"type":"VEC3"
		},
		{
			"bufferView":2,
			"componentType":5126,
			"count":3648,
			"type":"VEC2"
		},
		{
			"bufferView":3,
			"componentType":5123,
			"count":5748,
			"type":"SCALAR"
		},
		{
			"bufferView":4,
			"componentType":5126,
			"count":64,
			"max":[
				0.2255370318889618,
				1.0549334287643433,
				-0.40493544936180115
			],
			"min":[
				-0.09785845130681992,
				1.0549334287643433,
				-0.7283309698104858
			],
			"type":"VEC3"
		},
		{
			"bufferView":5,
			"componentType":5126,
			"count":64,
			"type":"VEC3"
		},
		{
			"bufferView":6,
			"componentType":5126,
			"count":64,
			"type":"VEC2"
		},
		{
			"bufferView":7,
			"componentType":5123,
			"count":192,
			"type":"SCALAR"
		}
	],
	"bufferViews":[
		{
			"buffer":0,
			"byteLength":43776,
			"byteOffset":0,
			"target":34962
		},
		{
			"buffer":0,
			"byteLength":43776,
			"byteOffset":43776,
			"target":34962
		},
		{
			"buffer":0,
			"byteLength":29184,
			"byteOffset":87552,
			"target":34962
		},
		{
			"buffer":0,
			"byteLength":11496,
			"byteOffset":116736,
			"target":34963
		},
		{
			"buffer":0,
			"byteLength":768,
			"byteOffset":128232,
			"target":34962
		},
		{
			"buffer":0,
			"byteLength":768,
			"byteOffset":129000,
			"target":34962
		},
		{
			"buffer":0,
			"byteLength":512,
			"byteOffset":129768,
			"target":34962
		},
		{
			"buffer":0,
			"byteLength":384,
			"byteOffset":130280,
			"target":34963
		}
	],
	"buffers":[
		{
			"byteLength":130664,
			"uri":"metal%20barel.bin"
		}
	]
}
