{
	"asset":{
		"generator":"Khronos glTF Blender I/O v4.0.44",
		"version":"2.0"
	},
	"scene":0,
	"scenes":[
		{
			"name":"Scene",
			"nodes":[
				0
			]
		}
	],
	"nodes":[
		{
			"mesh":0,
			"name":"leg 1.003",
			"scale":[
				0.10000000149011612,
				1,
				0.10000000149011612
			],
			"translation":[
				0.002342700958251953,
				1.7848747968673706,
				0.0038712024688720703
			]
		}
	],
	"materials":[
		{
			"doubleSided":true,
			"name":"Material.003",
			"pbrMetallicRoughness":{
				"baseColorFactor":[
					0.0015176330925896764,
					0.00151763332542032,
					0.001517634722404182,
					1
				],
				"metallicFactor":0,
				"roughnessFactor":0.5
			}
		},
		{
			"doubleSided":true,
			"name":"Material.001",
			"pbrMetallicRoughness":{
				"baseColorFactor":[
					0.8000000715255737,
					0.5085906982421875,
					0.22091935575008392,
					1
				],
				"metallicFactor":0,
				"roughnessFactor":0.5
			}
		},
		{
			"doubleSided":true,
			"name":"Material.007",
			"pbrMetallicRoughness":{
				"baseColorFactor":[
					0.0522175095975399,
					0.05221761390566826,
					0.05221765860915184,
					1
				],
				"metallicFactor":0,
				"roughnessFactor":0.5
			}
		},
		{
			"doubleSided":true,
			"name":"Material.005",
			"pbrMetallicRoughness":{
				"baseColorFactor":[
					0.0015176330925896764,
					0.00151763332542032,
					0.001517634722404182,
					1
				],
				"metallicFactor":0,
				"roughnessFactor":0.5
			}
		},
		{
			"doubleSided":true,
			"name":"Material.004",
			"pbrMetallicRoughness":{
				"baseColorFactor":[
					0.0015176330925896764,
					0.00151763332542032,
					0.001517634722404182,
					1
				],
				"metallicFactor":0,
				"roughnessFactor":0.5
			}
		}
	],
	"meshes":[
		{
			"name":"Cube.005",
			"primitives":[
				{
					"attributes":{
						"POSITION":0,
						"NORMAL":1,
						"TEXCOORD_0":2
					},
					"indices":3,
					"material":0
				},
				{
					"attributes":{
						"POSITION":4,
						"NORMAL":5,
						"TEXCOORD_0":6
					},
					"indices":7,
					"material":1
				},
				{
					"attributes":{
						"POSITION":8,
						"NORMAL":9,
						"TEXCOORD_0":10
					},
					"indices":11,
					"material":2
				},
				{
					"attributes":{
						"POSITION":12,
						"NORMAL":13,
						"TEXCOORD_0":14
					},
					"indices":15,
					"material":3
				},
				{
					"attributes":{
						"POSITION":16,
						"NORMAL":17,
						"TEXCOORD_0":18
					},
					"indices":19,
					"material":4
				}
			]
		}
	],
	"accessors":[
		{
			"bufferView":0,
			"componentType":5126,
			"count":56,
			"max":[
				18.036014556884766,
				0.044669389724731445,
				-24.96866226196289
			],
			"min":[
				15.506452560424805,
				-1.9665539264678955,
				-27.49822425842285
			],
			"type":"VEC3"
		},
		{
			"bufferView":1,
			"componentType":5126,
			"count":56,
			"type":"VEC3"
		},
		{
			"bufferView":2,
			"componentType":5126,
			"count":56,
			"type":"VEC2"
		},
		{
			"bufferView":3,
			"componentType":5123,
			"count":84,
			"type":"SCALAR"
		},
		{
			"bufferView":4,
			"componentType":5126,
			"count":60,
			"max":[
				19.835453033447266,
				0.1738661527633667,
				29.749605178833008
			],
			"min":[
				-19.882305145263672,
				0.02153313159942627,
				-29.8270320892334
			],
			"type":"VEC3"
		},
		{
			"bufferView":5,
			"componentType":5126,
			"count":60,
			"type":"VEC3"
		},
		{
			"bufferView":6,
			"componentType":5126,
			"count":60,
			"type":"VEC2"
		},
		{
			"bufferView":7,
			"componentType":5123,
			"count":102,
			"type":"SCALAR"
		},
		{
			"bufferView":8,
			"componentType":5126,
			"count":4,
			"max":[
				19.26913833618164,
				0.1633012294769287,
				28.90013313293457
			],
			"min":[
				-19.315990447998047,
				0.1633012294769287,
				-28.977558135986328
			],
			"type":"VEC3"
		},
		{
			"bufferView":9,
			"componentType":5126,
			"count":4,
			"type":"VEC3"
		},
		{
			"bufferView":10,
			"componentType":5126,
			"count":4,
			"type":"VEC2"
		},
		{
			"bufferView":11,
			"componentType":5123,
			"count":6,
			"type":"SCALAR"
		},
		{
			"bufferView":12,
			"componentType":5126,
			"count":106,
			"max":[
				17.97821617126465,
				0.12305116653442383,
				27.554113388061523
			],
			"min":[
				-17.853126525878906,
				-1.9701852798461914,
				24.96656608581543
			],
			"type":"VEC3"
		},
		{
			"bufferView":13,
			"componentType":5126,
			"count":106,
			"type":"VEC3"
		},
		{
			"bufferView":14,
			"componentType":5126,
			"count":106,
			"type":"VEC2"
		},
		{
			"bufferView":15,
			"componentType":5123,
			"count":168,
			"type":"SCALAR"
		},
		{
			"bufferView":16,
			"componentType":5126,
			"count":56,
			"max":[
				-15.291942596435547,
				0.05039477348327637,
				-24.959619522094727
			],
			"min":[
				-17.826766967773438,
				-1.9644060134887695,
				-27.494443893432617
			],
			"type":"VEC3"
		},
		{
			"bufferView":17,
			"componentType":5126,
			"count":56,
			"type":"VEC3"
		},
		{
			"bufferView":18,
			"componentType":5126,
			"count":56,
			"type":"VEC2"
		},
		{
			"bufferView":19,
			"componentType":5123,
			"count":84,
			"type":"SCALAR"
		}
	],
	"bufferViews":[
		{
			"buffer":0,
			"byteLength":672,
			"byteOffset":0,
			"target":34962
		},
		{
			"buffer":0,
			"byteLength":672,
			"byteOffset":672,
			"target":34962
		},
		{
			"buffer":0,
			"byteLength":448,
			"byteOffset":1344,
			"target":34962
		},
		{
			"buffer":0,
			"byteLength":168,
			"byteOffset":1792,
			"target":34963
		},
		{
			"buffer":0,
			"byteLength":720,
			"byteOffset":1960,
			"target":34962
		},
		{
			"buffer":0,
			"byteLength":720,
			"byteOffset":2680,
			"target":34962
		},
		{
			"buffer":0,
			"byteLength":480,
			"byteOffset":3400,
			"target":34962
		},
		{
			"buffer":0,
			"byteLength":204,
			"byteOffset":3880,
			"target":34963
		},
		{
			"buffer":0,
			"byteLength":48,
			"byteOffset":4084,
			"target":34962
		},
		{
			"buffer":0,
			"byteLength":48,
			"byteOffset":4132,
			"target":34962
		},
		{
			"buffer":0,
			"byteLength":32,
			"byteOffset":4180,
			"target":34962
		},
		{
			"buffer":0,
			"byteLength":12,
			"byteOffset":4212,
			"target":34963
		},
		{
			"buffer":0,
			"byteLength":1272,
			"byteOffset":4224,
			"target":34962
		},
		{
			"buffer":0,
			"byteLength":1272,
			"byteOffset":5496,
			"target":34962
		},
		{
			"buffer":0,
			"byteLength":848,
			"byteOffset":6768,
			"target":34962
		},
		{
			"buffer":0,
			"byteLength":336,
			"byteOffset":7616,
			"target":34963
		},
		{
			"buffer":0,
			"byteLength":672,
			"byteOffset":7952,
			"target":34962
		},
		{
			"buffer":0,
			"byteLength":672,
			"byteOffset":8624,
			"target":34962
		},
		{
			"buffer":0,
			"byteLength":448,
			"byteOffset":9296,
			"target":34962
		},
		{
			"buffer":0,
			"byteLength":168,
			"byteOffset":9744,
			"target":34963
		}
	],
	"buffers":[
		{
			"byteLength":9912,
			"uri":"table.bin"
		}
	]
}
