{
	"asset":{
		"generator":"Khronos glTF Blender I/O v4.0.44",
		"version":"2.0"
	},
	"scene":0,
	"scenes":[
		{
			"name":"Scene",
			"nodes":[
				0
			]
		}
	],
	"nodes":[
		{
			"mesh":0,
			"name":"Cube",
			"scale":[
				2.5,
				6,
				3.5
			],
			"translation":[
				0,
				6.0358405113220215,
				0
			]
		}
	],
	"meshes":[
		{
			"name":"Cube.001",
			"primitives":[
				{
					"attributes":{
						"POSITION":0,
						"NORMAL":1,
						"TEXCOORD_0":2
					},
					"indices":3
				}
			]
		}
	],
	"accessors":[
		{
			"bufferView":0,
			"componentType":5126,
			"count":511,
			"max":[
				1,
				1.0185579061508179,
				1.0313832759857178
			],
			"min":[
				-1,
				-1,
				-1.0376436710357666
			],
			"type":"VEC3"
		},
		{
			"bufferView":1,
			"componentType":5126,
			"count":511,
			"type":"VEC3"
		},
		{
			"bufferView":2,
			"componentType":5126,
			"count":511,
			"type":"VEC2"
		},
		{
			"bufferView":3,
			"componentType":5123,
			"count":1140,
			"type":"SCALAR"
		}
	],
	"bufferViews":[
		{
			"buffer":0,
			"byteLength":6132,
			"byteOffset":0,
			"target":34962
		},
		{
			"buffer":0,
			"byteLength":6132,
			"byteOffset":6132,
			"target":34962
		},
		{
			"buffer":0,
			"byteLength":4088,
			"byteOffset":12264,
			"target":34962
		},
		{
			"buffer":0,
			"byteLength":2280,
			"byteOffset":16352,
			"target":34963
		}
	],
	"buffers":[
		{
			"byteLength":18632,
			"uri":"vending%20machine.bin"
		}
	]
}
