{
	"asset":{
		"generator":"Khronos glTF Blender I/O v4.0.44",
		"version":"2.0"
	},
	"scene":0,
	"scenes":[
		{
			"name":"Scene",
			"nodes":[
				0
			]
		}
	],
	"nodes":[
		{
			"mesh":0,
			"name":"Cube",
			"scale":[
				2.5,
				6,
				3.5
			],
			"translation":[
				0,
				6.0358405113220215,
				0
			]
		}
	],
	"materials":[
		{
			"doubleSided":true,
			"name":"Material",
			"pbrMetallicRoughness":{
				"baseColorFactor":[
					0.2184339165687561,
					0.3755322992801666,
					0.4877948760986328,
					1
				],
				"roughnessFactor":0.374015748500824
			}
		},
		{
			"doubleSided":true,
			"name":"Material.001",
			"pbrMetallicRoughness":{
				"baseColorFactor":[
					0.8001648187637329,
					0.6985597610473633,
					0.01635226421058178,
					1
				],
				"metallicFactor":0.22834645211696625,
				"roughnessFactor":0.5
			}
		},
		{
			"doubleSided":true,
			"name":"Material.002",
			"pbrMetallicRoughness":{
				"baseColorFactor":[
					0.8001965880393982,
					0.008140986785292625,
					0,
					1
				],
				"metallicFactor":0.4960629940032959,
				"roughnessFactor":0.5
			}
		},
		{
			"doubleSided":true,
			"name":"Material.003",
			"pbrMetallicRoughness":{
				"baseColorFactor":[
					0.00950102973729372,
					0.00950102973729372,
					0.00950102973729372,
					1
				],
				"metallicFactor":0.7952755689620972,
				"roughnessFactor":0.7047244310379028
			}
		},
		{
			"doubleSided":true,
			"name":"Material.004",
			"pbrMetallicRoughness":{
				"baseColorFactor":[
					0,
					0.8019354939460754,
					0.00755707174539566,
					1
				],
				"metallicFactor":0,
				"roughnessFactor":0.5
			}
		},
		{
			"doubleSided":true,
			"name":"Material.005",
			"pbrMetallicRoughness":{
				"baseColorFactor":[
					0.02771848812699318,
					0.02771848812699318,
					0.02771848812699318,
					1
				],
				"metallicFactor":0.8582677245140076,
				"roughnessFactor":0.14173229038715363
			}
		},
		{
			"doubleSided":true,
			"name":"Material.006",
			"pbrMetallicRoughness":{
				"baseColorFactor":[
					0.33860868215560913,
					0.8016903400421143,
					0.6511908769607544,
					1
				],
				"roughnessFactor":0.6811023950576782
			}
		},
		{
			"doubleSided":true,
			"name":"Material.007",
			"pbrMetallicRoughness":{
				"baseColorFactor":[
					0.8001892566680908,
					0.01040092296898365,
					0.015710286796092987,
					1
				],
				"roughnessFactor":0
			}
		},
		{
			"doubleSided":true,
			"name":"Material.008",
			"pbrMetallicRoughness":{
				"baseColorFactor":[
					0.5093915462493896,
					0.4375063180923462,
					0.10047946870326996,
					1
				],
				"metallicFactor":0.874015748500824,
				"roughnessFactor":0
			}
		},
		{
			"doubleSided":true,
			"name":"Material.009",
			"pbrMetallicRoughness":{
				"baseColorFactor":[
					0.2183469831943512,
					0.2595735192298889,
					0.2838118076324463,
					1
				],
				"metallicFactor":0.8110235929489136,
				"roughnessFactor":0.15354329347610474
			}
		},
		{
			"doubleSided":true,
			"name":"Material.010",
			"pbrMetallicRoughness":{
				"baseColorFactor":[
					0.13199877738952637,
					0.17794957756996155,
					0.3212066888809204,
					1
				],
				"metallicFactor":0.8503937125205994,
				"roughnessFactor":0
			}
		},
		{
			"doubleSided":true,
			"name":"Material.011",
			"pbrMetallicRoughness":{
				"baseColorFactor":[
					0,
					1,
					0.01026594266295433,
					1
				],
				"roughnessFactor":0
			}
		}
	],
	"meshes":[
		{
			"name":"Cube.001",
			"primitives":[
				{
					"attributes":{
						"POSITION":0,
						"NORMAL":1,
						"TEXCOORD_0":2
					},
					"indices":3,
					"material":0
				},
				{
					"attributes":{
						"POSITION":4,
						"NORMAL":5,
						"TEXCOORD_0":6
					},
					"indices":7,
					"material":1
				},
				{
					"attributes":{
						"POSITION":8,
						"NORMAL":9,
						"TEXCOORD_0":10
					},
					"indices":11,
					"material":2
				},
				{
					"attributes":{
						"POSITION":12,
						"NORMAL":13,
						"TEXCOORD_0":14
					},
					"indices":15,
					"material":3
				},
				{
					"attributes":{
						"POSITION":16,
						"NORMAL":17,
						"TEXCOORD_0":18
					},
					"indices":19,
					"material":4
				},
				{
					"attributes":{
						"POSITION":20,
						"NORMAL":21,
						"TEXCOORD_0":22
					},
					"indices":23,
					"material":5
				},
				{
					"attributes":{
						"POSITION":24,
						"NORMAL":25,
						"TEXCOORD_0":26
					},
					"indices":27,
					"material":6
				},
				{
					"attributes":{
						"POSITION":28,
						"NORMAL":29,
						"TEXCOORD_0":30
					},
					"indices":31,
					"material":7
				},
				{
					"attributes":{
						"POSITION":32,
						"NORMAL":33,
						"TEXCOORD_0":34
					},
					"indices":35,
					"material":8
				},
				{
					"attributes":{
						"POSITION":36,
						"NORMAL":37,
						"TEXCOORD_0":38
					},
					"indices":39,
					"material":9
				},
				{
					"attributes":{
						"POSITION":40,
						"NORMAL":41,
						"TEXCOORD_0":42
					},
					"indices":43,
					"material":10
				},
				{
					"attributes":{
						"POSITION":44,
						"NORMAL":45,
						"TEXCOORD_0":46
					},
					"indices":47,
					"material":11
				}
			]
		}
	],
	"accessors":[
		{
			"bufferView":0,
			"componentType":5126,
			"count":765,
			"max":[
				1,
				1.0008971691131592,
				1.0313832759857178
			],
			"min":[
				-1,
				-1,
				-1.0376436710357666
			],
			"type":"VEC3"
		},
		{
			"bufferView":1,
			"componentType":5126,
			"count":765,
			"type":"VEC3"
		},
		{
			"bufferView":2,
			"componentType":5126,
			"count":765,
			"type":"VEC2"
		},
		{
			"bufferView":3,
			"componentType":5123,
			"count":1713,
			"type":"SCALAR"
		},
		{
			"bufferView":4,
			"componentType":5126,
			"count":180,
			"max":[
				0.9522013068199158,
				0.2637791037559509,
				-0.8419760465621948
			],
			"min":[
				0.9374188184738159,
				-0.06435149908065796,
				-0.87282794713974
			],
			"type":"VEC3"
		},
		{
			"bufferView":5,
			"componentType":5126,
			"count":180,
			"type":"VEC3"
		},
		{
			"bufferView":6,
			"componentType":5126,
			"count":180,
			"type":"VEC2"
		},
		{
			"bufferView":7,
			"componentType":5123,
			"count":270,
			"type":"SCALAR"
		},
		{
			"bufferView":8,
			"componentType":5126,
			"count":20,
			"max":[
				0.9675884246826172,
				0.33043885231018066,
				-0.785585880279541
			],
			"min":[
				0.9374188184738159,
				0.3159559667110443,
				-0.8213133215904236
			],
			"type":"VEC3"
		},
		{
			"bufferView":9,
			"componentType":5126,
			"count":20,
			"type":"VEC3"
		},
		{
			"bufferView":10,
			"componentType":5126,
			"count":20,
			"type":"VEC2"
		},
		{
			"bufferView":11,
			"componentType":5123,
			"count":30,
			"type":"SCALAR"
		},
		{
			"bufferView":12,
			"componentType":5126,
			"count":120,
			"max":[
				0.9427177906036377,
				0.5207651257514954,
				1.0313832759857178
			],
			"min":[
				-1,
				-0.9022111892700195,
				-1.0376436710357666
			],
			"type":"VEC3"
		},
		{
			"bufferView":13,
			"componentType":5126,
			"count":120,
			"type":"VEC3"
		},
		{
			"bufferView":14,
			"componentType":5126,
			"count":120,
			"type":"VEC2"
		},
		{
			"bufferView":15,
			"componentType":5123,
			"count":354,
			"type":"SCALAR"
		},
		{
			"bufferView":16,
			"componentType":5126,
			"count":20,
			"max":[
				0.9659054279327393,
				-0.08317452669143677,
				-0.6836290955543518
			],
			"min":[
				0.9374188184738159,
				-0.11211641877889633,
				-0.8811199069023132
			],
			"type":"VEC3"
		},
		{
			"bufferView":17,
			"componentType":5126,
			"count":20,
			"type":"VEC3"
		},
		{
			"bufferView":18,
			"componentType":5126,
			"count":20,
			"type":"VEC2"
		},
		{
			"bufferView":19,
			"componentType":5123,
			"count":30,
			"type":"SCALAR"
		},
		{
			"bufferView":20,
			"componentType":5126,
			"count":187,
			"max":[
				1,
				1.0185579061508179,
				1.0313832759857178
			],
			"min":[
				0.7911385893821716,
				-1,
				-1.0376436710357666
			],
			"type":"VEC3"
		},
		{
			"bufferView":21,
			"componentType":5126,
			"count":187,
			"type":"VEC3"
		},
		{
			"bufferView":22,
			"componentType":5126,
			"count":187,
			"type":"VEC2"
		},
		{
			"bufferView":23,
			"componentType":5123,
			"count":453,
			"type":"SCALAR"
		},
		{
			"bufferView":24,
			"componentType":5126,
			"count":101,
			"max":[
				1,
				0.5312650799751282,
				-0.59132319688797
			],
			"min":[
				0.9374188184738159,
				-0.36460909247398376,
				-1
			],
			"type":"VEC3"
		},
		{
			"bufferView":25,
			"componentType":5126,
			"count":101,
			"type":"VEC3"
		},
		{
			"bufferView":26,
			"componentType":5126,
			"count":101,
			"type":"VEC2"
		},
		{
			"bufferView":27,
			"componentType":5123,
			"count":237,
			"type":"SCALAR"
		},
		{
			"bufferView":28,
			"componentType":5126,
			"count":12,
			"max":[
				1,
				0.5672788619995117,
				-0.5913232564926147
			],
			"min":[
				0.8883321285247803,
				0.5307715535163879,
				-1
			],
			"type":"VEC3"
		},
		{
			"bufferView":29,
			"componentType":5126,
			"count":12,
			"type":"VEC3"
		},
		{
			"bufferView":30,
			"componentType":5126,
			"count":12,
			"type":"VEC2"
		},
		{
			"bufferView":31,
			"componentType":5123,
			"count":24,
			"type":"SCALAR"
		},
		{
			"bufferView":32,
			"componentType":5126,
			"count":28,
			"max":[
				1,
				-0.3641156256198883,
				1
			],
			"min":[
				0.8883321285247803,
				-0.8709709048271179,
				-1
			],
			"type":"VEC3"
		},
		{
			"bufferView":33,
			"componentType":5126,
			"count":28,
			"type":"VEC3"
		},
		{
			"bufferView":34,
			"componentType":5126,
			"count":28,
			"type":"VEC2"
		},
		{
			"bufferView":35,
			"componentType":5123,
			"count":66,
			"type":"SCALAR"
		},
		{
			"bufferView":36,
			"componentType":5126,
			"count":16,
			"max":[
				1,
				0.9796789288520813,
				0.33876800537109375
			],
			"min":[
				0.8654844164848328,
				-0.8496659398078918,
				-0.33870697021484375
			],
			"type":"VEC3"
		},
		{
			"bufferView":37,
			"componentType":5126,
			"count":16,
			"type":"VEC3"
		},
		{
			"bufferView":38,
			"componentType":5126,
			"count":16,
			"type":"VEC2"
		},
		{
			"bufferView":39,
			"componentType":5123,
			"count":24,
			"type":"SCALAR"
		},
		{
			"bufferView":40,
			"componentType":5126,
			"count":5,
			"max":[
				1,
				0.5312650799751282,
				1.0313832759857178
			],
			"min":[
				0.8883321285247803,
				-0.4001293480396271,
				1
			],
			"type":"VEC3"
		},
		{
			"bufferView":41,
			"componentType":5126,
			"count":5,
			"type":"VEC3"
		},
		{
			"bufferView":42,
			"componentType":5126,
			"count":5,
			"type":"VEC2"
		},
		{
			"bufferView":43,
			"componentType":5123,
			"count":9,
			"type":"SCALAR"
		},
		{
			"bufferView":44,
			"componentType":5126,
			"count":32,
			"max":[
				0.9374188184738159,
				0.5308212637901306,
				-0.9537035822868347
			],
			"min":[
				0.9374188184738159,
				-0.3645593822002411,
				-0.9768518209457397
			],
			"type":"VEC3"
		},
		{
			"bufferView":45,
			"componentType":5126,
			"count":32,
			"type":"VEC3"
		},
		{
			"bufferView":46,
			"componentType":5126,
			"count":32,
			"type":"VEC2"
		},
		{
			"bufferView":47,
			"componentType":5123,
			"count":90,
			"type":"SCALAR"
		}
	],
	"bufferViews":[
		{
			"buffer":0,
			"byteLength":9180,
			"byteOffset":0,
			"target":34962
		},
		{
			"buffer":0,
			"byteLength":9180,
			"byteOffset":9180,
			"target":34962
		},
		{
			"buffer":0,
			"byteLength":6120,
			"byteOffset":18360,
			"target":34962
		},
		{
			"buffer":0,
			"byteLength":3426,
			"byteOffset":24480,
			"target":34963
		},
		{
			"buffer":0,
			"byteLength":2160,
			"byteOffset":27908,
			"target":34962
		},
		{
			"buffer":0,
			"byteLength":2160,
			"byteOffset":30068,
			"target":34962
		},
		{
			"buffer":0,
			"byteLength":1440,
			"byteOffset":32228,
			"target":34962
		},
		{
			"buffer":0,
			"byteLength":540,
			"byteOffset":33668,
			"target":34963
		},
		{
			"buffer":0,
			"byteLength":240,
			"byteOffset":34208,
			"target":34962
		},
		{
			"buffer":0,
			"byteLength":240,
			"byteOffset":34448,
			"target":34962
		},
		{
			"buffer":0,
			"byteLength":160,
			"byteOffset":34688,
			"target":34962
		},
		{
			"buffer":0,
			"byteLength":60,
			"byteOffset":34848,
			"target":34963
		},
		{
			"buffer":0,
			"byteLength":1440,
			"byteOffset":34908,
			"target":34962
		},
		{
			"buffer":0,
			"byteLength":1440,
			"byteOffset":36348,
			"target":34962
		},
		{
			"buffer":0,
			"byteLength":960,
			"byteOffset":37788,
			"target":34962
		},
		{
			"buffer":0,
			"byteLength":708,
			"byteOffset":38748,
			"target":34963
		},
		{
			"buffer":0,
			"byteLength":240,
			"byteOffset":39456,
			"target":34962
		},
		{
			"buffer":0,
			"byteLength":240,
			"byteOffset":39696,
			"target":34962
		},
		{
			"buffer":0,
			"byteLength":160,
			"byteOffset":39936,
			"target":34962
		},
		{
			"buffer":0,
			"byteLength":60,
			"byteOffset":40096,
			"target":34963
		},
		{
			"buffer":0,
			"byteLength":2244,
			"byteOffset":40156,
			"target":34962
		},
		{
			"buffer":0,
			"byteLength":2244,
			"byteOffset":42400,
			"target":34962
		},
		{
			"buffer":0,
			"byteLength":1496,
			"byteOffset":44644,
			"target":34962
		},
		{
			"buffer":0,
			"byteLength":906,
			"byteOffset":46140,
			"target":34963
		},
		{
			"buffer":0,
			"byteLength":1212,
			"byteOffset":47048,
			"target":34962
		},
		{
			"buffer":0,
			"byteLength":1212,
			"byteOffset":48260,
			"target":34962
		},
		{
			"buffer":0,
			"byteLength":808,
			"byteOffset":49472,
			"target":34962
		},
		{
			"buffer":0,
			"byteLength":474,
			"byteOffset":50280,
			"target":34963
		},
		{
			"buffer":0,
			"byteLength":144,
			"byteOffset":50756,
			"target":34962
		},
		{
			"buffer":0,
			"byteLength":144,
			"byteOffset":50900,
			"target":34962
		},
		{
			"buffer":0,
			"byteLength":96,
			"byteOffset":51044,
			"target":34962
		},
		{
			"buffer":0,
			"byteLength":48,
			"byteOffset":51140,
			"target":34963
		},
		{
			"buffer":0,
			"byteLength":336,
			"byteOffset":51188,
			"target":34962
		},
		{
			"buffer":0,
			"byteLength":336,
			"byteOffset":51524,
			"target":34962
		},
		{
			"buffer":0,
			"byteLength":224,
			"byteOffset":51860,
			"target":34962
		},
		{
			"buffer":0,
			"byteLength":132,
			"byteOffset":52084,
			"target":34963
		},
		{
			"buffer":0,
			"byteLength":192,
			"byteOffset":52216,
			"target":34962
		},
		{
			"buffer":0,
			"byteLength":192,
			"byteOffset":52408,
			"target":34962
		},
		{
			"buffer":0,
			"byteLength":128,
			"byteOffset":52600,
			"target":34962
		},
		{
			"buffer":0,
			"byteLength":48,
			"byteOffset":52728,
			"target":34963
		},
		{
			"buffer":0,
			"byteLength":60,
			"byteOffset":52776,
			"target":34962
		},
		{
			"buffer":0,
			"byteLength":60,
			"byteOffset":52836,
			"target":34962
		},
		{
			"buffer":0,
			"byteLength":40,
			"byteOffset":52896,
			"target":34962
		},
		{
			"buffer":0,
			"byteLength":18,
			"byteOffset":52936,
			"target":34963
		},
		{
			"buffer":0,
			"byteLength":384,
			"byteOffset":52956,
			"target":34962
		},
		{
			"buffer":0,
			"byteLength":384,
			"byteOffset":53340,
			"target":34962
		},
		{
			"buffer":0,
			"byteLength":256,
			"byteOffset":53724,
			"target":34962
		},
		{
			"buffer":0,
			"byteLength":180,
			"byteOffset":53980,
			"target":34963
		}
	],
	"buffers":[
		{
			"byteLength":54160,
			"uri":"vending%20machine.bin"
		}
	]
}
